<mxfile host="app.diagrams.net" modified="2023-09-22T11:34:38.342Z" agent="Mozilla/5.0 (Windows NT 10.0; Win64; x64) AppleWebKit/537.36 (KHTML, like Gecko) Chrome/116.0.0.0 Safari/537.36" etag="rH4aTICZXXL9mdYNpDRr" version="21.8.0" type="device">
  <diagram id="C5RBs43oDa-KdzZeNtuy" name="Page-1">
    <mxGraphModel dx="932" dy="1933" grid="1" gridSize="10" guides="1" tooltips="1" connect="1" arrows="1" fold="1" page="1" pageScale="1" pageWidth="827" pageHeight="1169" math="0" shadow="0">
      <root>
        <mxCell id="WIyWlLk6GJQsqaUBKTNV-0" />
        <mxCell id="WIyWlLk6GJQsqaUBKTNV-1" parent="WIyWlLk6GJQsqaUBKTNV-0" />
        <mxCell id="MjsbFw8WfOXpbNaebbq9-2" style="edgeStyle=orthogonalEdgeStyle;rounded=0;orthogonalLoop=1;jettySize=auto;html=1;" parent="WIyWlLk6GJQsqaUBKTNV-1" source="MjsbFw8WfOXpbNaebbq9-1" target="MjsbFw8WfOXpbNaebbq9-3" edge="1">
          <mxGeometry relative="1" as="geometry">
            <mxPoint x="160" y="35" as="targetPoint" />
          </mxGeometry>
        </mxCell>
        <mxCell id="MjsbFw8WfOXpbNaebbq9-1" value="" style="ellipse;whiteSpace=wrap;html=1;aspect=fixed;" parent="WIyWlLk6GJQsqaUBKTNV-1" vertex="1">
          <mxGeometry x="40" y="30" width="50" height="50" as="geometry" />
        </mxCell>
        <mxCell id="MjsbFw8WfOXpbNaebbq9-8" value="" style="edgeStyle=orthogonalEdgeStyle;rounded=0;orthogonalLoop=1;jettySize=auto;html=1;" parent="WIyWlLk6GJQsqaUBKTNV-1" source="MjsbFw8WfOXpbNaebbq9-3" target="MjsbFw8WfOXpbNaebbq9-4" edge="1">
          <mxGeometry relative="1" as="geometry" />
        </mxCell>
        <mxCell id="MjsbFw8WfOXpbNaebbq9-3" value="ЗАПОЛНИТЬ АНКЕТУ" style="rounded=1;whiteSpace=wrap;html=1;" parent="WIyWlLk6GJQsqaUBKTNV-1" vertex="1">
          <mxGeometry x="160" y="40" width="110" height="45" as="geometry" />
        </mxCell>
        <mxCell id="MjsbFw8WfOXpbNaebbq9-9" value="" style="edgeStyle=orthogonalEdgeStyle;rounded=0;orthogonalLoop=1;jettySize=auto;html=1;" parent="WIyWlLk6GJQsqaUBKTNV-1" source="MjsbFw8WfOXpbNaebbq9-4" edge="1">
          <mxGeometry relative="1" as="geometry">
            <mxPoint x="630" y="10" as="targetPoint" />
          </mxGeometry>
        </mxCell>
        <mxCell id="MjsbFw8WfOXpbNaebbq9-4" value="СОЗДАТЬ УЧЕТНУЮ ЗАПИСЬ&amp;nbsp;" style="rounded=1;whiteSpace=wrap;html=1;" parent="WIyWlLk6GJQsqaUBKTNV-1" vertex="1">
          <mxGeometry x="430" y="-20" width="120" height="60" as="geometry" />
        </mxCell>
        <mxCell id="MjsbFw8WfOXpbNaebbq9-7" value="" style="ellipse;whiteSpace=wrap;html=1;aspect=fixed;" parent="WIyWlLk6GJQsqaUBKTNV-1" vertex="1">
          <mxGeometry x="630" y="-10" width="50" height="50" as="geometry" />
        </mxCell>
        <mxCell id="QGUBepIBmEVTyhBLuL4_-0" value="&lt;font style=&quot;font-size: 9px;&quot;&gt;ВХОД НА СТРАНИЦУ АВТОРИЗАЦИИ&lt;/font&gt;" style="text;html=1;strokeColor=none;fillColor=none;align=center;verticalAlign=middle;whiteSpace=wrap;rounded=0;" vertex="1" parent="WIyWlLk6GJQsqaUBKTNV-1">
          <mxGeometry x="30" y="-20" width="60" height="30" as="geometry" />
        </mxCell>
        <mxCell id="QGUBepIBmEVTyhBLuL4_-3" value="" style="edgeStyle=orthogonalEdgeStyle;rounded=0;orthogonalLoop=1;jettySize=auto;html=1;" edge="1" parent="WIyWlLk6GJQsqaUBKTNV-1" source="QGUBepIBmEVTyhBLuL4_-1" target="MjsbFw8WfOXpbNaebbq9-3">
          <mxGeometry relative="1" as="geometry" />
        </mxCell>
        <mxCell id="QGUBepIBmEVTyhBLuL4_-1" value="ФОРМА" style="text;html=1;strokeColor=none;fillColor=none;align=center;verticalAlign=middle;whiteSpace=wrap;rounded=0;" vertex="1" parent="WIyWlLk6GJQsqaUBKTNV-1">
          <mxGeometry x="185" y="-10" width="60" height="30" as="geometry" />
        </mxCell>
        <mxCell id="QGUBepIBmEVTyhBLuL4_-4" value="ДАННЫЕ USER&amp;nbsp;" style="text;html=1;strokeColor=none;fillColor=none;align=center;verticalAlign=middle;whiteSpace=wrap;rounded=0;" vertex="1" parent="WIyWlLk6GJQsqaUBKTNV-1">
          <mxGeometry x="290" y="30" width="60" height="30" as="geometry" />
        </mxCell>
        <mxCell id="QGUBepIBmEVTyhBLuL4_-6" value="" style="edgeStyle=orthogonalEdgeStyle;rounded=0;orthogonalLoop=1;jettySize=auto;html=1;" edge="1" parent="WIyWlLk6GJQsqaUBKTNV-1" source="QGUBepIBmEVTyhBLuL4_-5" target="MjsbFw8WfOXpbNaebbq9-4">
          <mxGeometry relative="1" as="geometry" />
        </mxCell>
        <mxCell id="QGUBepIBmEVTyhBLuL4_-5" value="ПО" style="text;html=1;strokeColor=none;fillColor=none;align=center;verticalAlign=middle;whiteSpace=wrap;rounded=0;" vertex="1" parent="WIyWlLk6GJQsqaUBKTNV-1">
          <mxGeometry x="460" y="65" width="60" height="30" as="geometry" />
        </mxCell>
        <mxCell id="QGUBepIBmEVTyhBLuL4_-80" style="edgeStyle=orthogonalEdgeStyle;rounded=0;orthogonalLoop=1;jettySize=auto;html=1;entryX=0.5;entryY=1;entryDx=0;entryDy=0;" edge="1" parent="WIyWlLk6GJQsqaUBKTNV-1" source="QGUBepIBmEVTyhBLuL4_-7" target="MjsbFw8WfOXpbNaebbq9-3">
          <mxGeometry relative="1" as="geometry" />
        </mxCell>
        <mxCell id="QGUBepIBmEVTyhBLuL4_-7" value="USER" style="text;html=1;strokeColor=none;fillColor=none;align=center;verticalAlign=middle;whiteSpace=wrap;rounded=0;" vertex="1" parent="WIyWlLk6GJQsqaUBKTNV-1">
          <mxGeometry x="185" y="120" width="60" height="30" as="geometry" />
        </mxCell>
        <mxCell id="QGUBepIBmEVTyhBLuL4_-16" value="" style="edgeStyle=orthogonalEdgeStyle;rounded=0;orthogonalLoop=1;jettySize=auto;html=1;" edge="1" parent="WIyWlLk6GJQsqaUBKTNV-1" source="QGUBepIBmEVTyhBLuL4_-12" target="QGUBepIBmEVTyhBLuL4_-13">
          <mxGeometry relative="1" as="geometry" />
        </mxCell>
        <mxCell id="QGUBepIBmEVTyhBLuL4_-12" value="" style="ellipse;whiteSpace=wrap;html=1;aspect=fixed;" vertex="1" parent="WIyWlLk6GJQsqaUBKTNV-1">
          <mxGeometry x="35" y="310" width="50" height="50" as="geometry" />
        </mxCell>
        <mxCell id="QGUBepIBmEVTyhBLuL4_-20" value="" style="edgeStyle=orthogonalEdgeStyle;rounded=0;orthogonalLoop=1;jettySize=auto;html=1;" edge="1" parent="WIyWlLk6GJQsqaUBKTNV-1" source="QGUBepIBmEVTyhBLuL4_-13" target="QGUBepIBmEVTyhBLuL4_-19">
          <mxGeometry relative="1" as="geometry" />
        </mxCell>
        <mxCell id="QGUBepIBmEVTyhBLuL4_-13" value="ВВОД ДАННЫХ УЧЕТНОЙ ЗАПИСИ" style="rounded=1;whiteSpace=wrap;html=1;" vertex="1" parent="WIyWlLk6GJQsqaUBKTNV-1">
          <mxGeometry x="170" y="305" width="120" height="60" as="geometry" />
        </mxCell>
        <mxCell id="QGUBepIBmEVTyhBLuL4_-24" value="" style="edgeStyle=orthogonalEdgeStyle;rounded=0;orthogonalLoop=1;jettySize=auto;html=1;" edge="1" parent="WIyWlLk6GJQsqaUBKTNV-1" source="QGUBepIBmEVTyhBLuL4_-14" target="QGUBepIBmEVTyhBLuL4_-23">
          <mxGeometry relative="1" as="geometry" />
        </mxCell>
        <mxCell id="QGUBepIBmEVTyhBLuL4_-14" value="НЕТ ПАРОЛЯ \ ВОССТАНОВИТЬ ПАРОЛЬ" style="rounded=1;whiteSpace=wrap;html=1;" vertex="1" parent="WIyWlLk6GJQsqaUBKTNV-1">
          <mxGeometry x="500" y="230" width="120" height="60" as="geometry" />
        </mxCell>
        <mxCell id="QGUBepIBmEVTyhBLuL4_-18" value="ВХОД НА СТРАНИЦУ АВТОРИЗАЦИИ" style="text;html=1;strokeColor=none;fillColor=none;align=center;verticalAlign=middle;whiteSpace=wrap;rounded=0;" vertex="1" parent="WIyWlLk6GJQsqaUBKTNV-1">
          <mxGeometry x="35" y="380" width="60" height="30" as="geometry" />
        </mxCell>
        <mxCell id="QGUBepIBmEVTyhBLuL4_-30" style="edgeStyle=orthogonalEdgeStyle;rounded=0;orthogonalLoop=1;jettySize=auto;html=1;" edge="1" parent="WIyWlLk6GJQsqaUBKTNV-1" source="QGUBepIBmEVTyhBLuL4_-19" target="QGUBepIBmEVTyhBLuL4_-22">
          <mxGeometry relative="1" as="geometry" />
        </mxCell>
        <mxCell id="QGUBepIBmEVTyhBLuL4_-19" value="ПРОВЕРКА ДАННЫХ" style="rhombus;whiteSpace=wrap;html=1;" vertex="1" parent="WIyWlLk6GJQsqaUBKTNV-1">
          <mxGeometry x="340" y="295" width="80" height="80" as="geometry" />
        </mxCell>
        <mxCell id="QGUBepIBmEVTyhBLuL4_-33" value="" style="edgeStyle=orthogonalEdgeStyle;rounded=0;orthogonalLoop=1;jettySize=auto;html=1;" edge="1" parent="WIyWlLk6GJQsqaUBKTNV-1" source="QGUBepIBmEVTyhBLuL4_-22" target="QGUBepIBmEVTyhBLuL4_-31">
          <mxGeometry relative="1" as="geometry" />
        </mxCell>
        <mxCell id="QGUBepIBmEVTyhBLuL4_-22" value="ПРОХОЖДЕНИЕ ТЕСТА" style="rounded=1;whiteSpace=wrap;html=1;" vertex="1" parent="WIyWlLk6GJQsqaUBKTNV-1">
          <mxGeometry x="450" y="380" width="120" height="60" as="geometry" />
        </mxCell>
        <mxCell id="QGUBepIBmEVTyhBLuL4_-23" value="ВЫСЛАТЬ НОВЫЙ ПАРОЛЬ" style="rounded=1;whiteSpace=wrap;html=1;" vertex="1" parent="WIyWlLk6GJQsqaUBKTNV-1">
          <mxGeometry x="670" y="230" width="120" height="60" as="geometry" />
        </mxCell>
        <mxCell id="QGUBepIBmEVTyhBLuL4_-28" style="edgeStyle=orthogonalEdgeStyle;rounded=0;orthogonalLoop=1;jettySize=auto;html=1;entryX=0.592;entryY=0.033;entryDx=0;entryDy=0;entryPerimeter=0;" edge="1" parent="WIyWlLk6GJQsqaUBKTNV-1" source="QGUBepIBmEVTyhBLuL4_-23" target="QGUBepIBmEVTyhBLuL4_-13">
          <mxGeometry relative="1" as="geometry">
            <Array as="points">
              <mxPoint x="720" y="190" />
              <mxPoint x="241" y="190" />
            </Array>
          </mxGeometry>
        </mxCell>
        <mxCell id="QGUBepIBmEVTyhBLuL4_-29" style="edgeStyle=orthogonalEdgeStyle;rounded=0;orthogonalLoop=1;jettySize=auto;html=1;entryX=0.358;entryY=0.967;entryDx=0;entryDy=0;entryPerimeter=0;" edge="1" parent="WIyWlLk6GJQsqaUBKTNV-1" source="QGUBepIBmEVTyhBLuL4_-19" target="QGUBepIBmEVTyhBLuL4_-14">
          <mxGeometry relative="1" as="geometry" />
        </mxCell>
        <mxCell id="QGUBepIBmEVTyhBLuL4_-35" value="" style="edgeStyle=orthogonalEdgeStyle;rounded=0;orthogonalLoop=1;jettySize=auto;html=1;" edge="1" parent="WIyWlLk6GJQsqaUBKTNV-1" source="QGUBepIBmEVTyhBLuL4_-31" target="QGUBepIBmEVTyhBLuL4_-32">
          <mxGeometry relative="1" as="geometry" />
        </mxCell>
        <mxCell id="QGUBepIBmEVTyhBLuL4_-31" value="СОХРАНЕНИЕ РЕЗУЛЬТАТОВ ТЕСТА" style="rounded=1;whiteSpace=wrap;html=1;" vertex="1" parent="WIyWlLk6GJQsqaUBKTNV-1">
          <mxGeometry x="620" y="380" width="120" height="60" as="geometry" />
        </mxCell>
        <mxCell id="QGUBepIBmEVTyhBLuL4_-32" value="" style="ellipse;whiteSpace=wrap;html=1;aspect=fixed;" vertex="1" parent="WIyWlLk6GJQsqaUBKTNV-1">
          <mxGeometry x="790" y="385" width="50" height="50" as="geometry" />
        </mxCell>
        <mxCell id="QGUBepIBmEVTyhBLuL4_-36" value="НЕТ" style="text;html=1;strokeColor=none;fillColor=none;align=center;verticalAlign=middle;whiteSpace=wrap;rounded=0;" vertex="1" parent="WIyWlLk6GJQsqaUBKTNV-1">
          <mxGeometry x="490" y="305" width="60" height="30" as="geometry" />
        </mxCell>
        <mxCell id="QGUBepIBmEVTyhBLuL4_-37" value="ДА" style="text;html=1;strokeColor=none;fillColor=none;align=center;verticalAlign=middle;whiteSpace=wrap;rounded=0;" vertex="1" parent="WIyWlLk6GJQsqaUBKTNV-1">
          <mxGeometry x="460" y="350" width="60" height="30" as="geometry" />
        </mxCell>
        <mxCell id="QGUBepIBmEVTyhBLuL4_-39" value="ФОРМА" style="text;html=1;strokeColor=none;fillColor=none;align=center;verticalAlign=middle;whiteSpace=wrap;rounded=0;" vertex="1" parent="WIyWlLk6GJQsqaUBKTNV-1">
          <mxGeometry x="540" y="310" width="60" height="30" as="geometry" />
        </mxCell>
        <mxCell id="QGUBepIBmEVTyhBLuL4_-43" value="" style="edgeStyle=orthogonalEdgeStyle;rounded=0;orthogonalLoop=1;jettySize=auto;html=1;" edge="1" parent="WIyWlLk6GJQsqaUBKTNV-1" source="QGUBepIBmEVTyhBLuL4_-40" target="QGUBepIBmEVTyhBLuL4_-13">
          <mxGeometry relative="1" as="geometry" />
        </mxCell>
        <mxCell id="QGUBepIBmEVTyhBLuL4_-40" value="ФОРМА" style="text;html=1;strokeColor=none;fillColor=none;align=center;verticalAlign=middle;whiteSpace=wrap;rounded=0;" vertex="1" parent="WIyWlLk6GJQsqaUBKTNV-1">
          <mxGeometry x="180" y="240" width="60" height="30" as="geometry" />
        </mxCell>
        <mxCell id="QGUBepIBmEVTyhBLuL4_-44" value="" style="edgeStyle=orthogonalEdgeStyle;rounded=0;orthogonalLoop=1;jettySize=auto;html=1;" edge="1" parent="WIyWlLk6GJQsqaUBKTNV-1" source="QGUBepIBmEVTyhBLuL4_-41" target="QGUBepIBmEVTyhBLuL4_-14">
          <mxGeometry relative="1" as="geometry" />
        </mxCell>
        <mxCell id="QGUBepIBmEVTyhBLuL4_-41" value="ФОРМА" style="text;html=1;strokeColor=none;fillColor=none;align=center;verticalAlign=middle;whiteSpace=wrap;rounded=0;" vertex="1" parent="WIyWlLk6GJQsqaUBKTNV-1">
          <mxGeometry x="530" y="190" width="60" height="30" as="geometry" />
        </mxCell>
        <mxCell id="QGUBepIBmEVTyhBLuL4_-46" value="" style="edgeStyle=orthogonalEdgeStyle;rounded=0;orthogonalLoop=1;jettySize=auto;html=1;" edge="1" parent="WIyWlLk6GJQsqaUBKTNV-1" source="QGUBepIBmEVTyhBLuL4_-42" target="QGUBepIBmEVTyhBLuL4_-23">
          <mxGeometry relative="1" as="geometry" />
        </mxCell>
        <mxCell id="QGUBepIBmEVTyhBLuL4_-42" value="ФОРМА" style="text;html=1;strokeColor=none;fillColor=none;align=center;verticalAlign=middle;whiteSpace=wrap;rounded=0;" vertex="1" parent="WIyWlLk6GJQsqaUBKTNV-1">
          <mxGeometry x="730" y="170" width="60" height="30" as="geometry" />
        </mxCell>
        <mxCell id="QGUBepIBmEVTyhBLuL4_-45" style="edgeStyle=orthogonalEdgeStyle;rounded=0;orthogonalLoop=1;jettySize=auto;html=1;entryX=0.883;entryY=-0.05;entryDx=0;entryDy=0;entryPerimeter=0;" edge="1" parent="WIyWlLk6GJQsqaUBKTNV-1" source="QGUBepIBmEVTyhBLuL4_-39" target="QGUBepIBmEVTyhBLuL4_-22">
          <mxGeometry relative="1" as="geometry" />
        </mxCell>
        <mxCell id="QGUBepIBmEVTyhBLuL4_-51" style="edgeStyle=orthogonalEdgeStyle;rounded=0;orthogonalLoop=1;jettySize=auto;html=1;" edge="1" parent="WIyWlLk6GJQsqaUBKTNV-1" source="QGUBepIBmEVTyhBLuL4_-47" target="QGUBepIBmEVTyhBLuL4_-19">
          <mxGeometry relative="1" as="geometry" />
        </mxCell>
        <mxCell id="QGUBepIBmEVTyhBLuL4_-47" value="ПО" style="text;html=1;strokeColor=none;fillColor=none;align=center;verticalAlign=middle;whiteSpace=wrap;rounded=0;" vertex="1" parent="WIyWlLk6GJQsqaUBKTNV-1">
          <mxGeometry x="350" y="410" width="60" height="30" as="geometry" />
        </mxCell>
        <mxCell id="QGUBepIBmEVTyhBLuL4_-55" value="" style="edgeStyle=orthogonalEdgeStyle;rounded=0;orthogonalLoop=1;jettySize=auto;html=1;" edge="1" parent="WIyWlLk6GJQsqaUBKTNV-1" source="QGUBepIBmEVTyhBLuL4_-48" target="QGUBepIBmEVTyhBLuL4_-23">
          <mxGeometry relative="1" as="geometry" />
        </mxCell>
        <mxCell id="QGUBepIBmEVTyhBLuL4_-48" value="ПО" style="text;html=1;strokeColor=none;fillColor=none;align=center;verticalAlign=middle;whiteSpace=wrap;rounded=0;" vertex="1" parent="WIyWlLk6GJQsqaUBKTNV-1">
          <mxGeometry x="700" y="305" width="60" height="30" as="geometry" />
        </mxCell>
        <mxCell id="QGUBepIBmEVTyhBLuL4_-52" style="edgeStyle=orthogonalEdgeStyle;rounded=0;orthogonalLoop=1;jettySize=auto;html=1;entryX=0.5;entryY=1;entryDx=0;entryDy=0;" edge="1" parent="WIyWlLk6GJQsqaUBKTNV-1" source="QGUBepIBmEVTyhBLuL4_-49" target="QGUBepIBmEVTyhBLuL4_-31">
          <mxGeometry relative="1" as="geometry" />
        </mxCell>
        <mxCell id="QGUBepIBmEVTyhBLuL4_-49" value="ПО" style="text;html=1;strokeColor=none;fillColor=none;align=center;verticalAlign=middle;whiteSpace=wrap;rounded=0;" vertex="1" parent="WIyWlLk6GJQsqaUBKTNV-1">
          <mxGeometry x="650" y="460" width="60" height="30" as="geometry" />
        </mxCell>
        <mxCell id="QGUBepIBmEVTyhBLuL4_-57" style="edgeStyle=orthogonalEdgeStyle;rounded=0;orthogonalLoop=1;jettySize=auto;html=1;" edge="1" parent="WIyWlLk6GJQsqaUBKTNV-1" source="QGUBepIBmEVTyhBLuL4_-56" target="QGUBepIBmEVTyhBLuL4_-13">
          <mxGeometry relative="1" as="geometry" />
        </mxCell>
        <mxCell id="QGUBepIBmEVTyhBLuL4_-56" value="USER" style="text;html=1;strokeColor=none;fillColor=none;align=center;verticalAlign=middle;whiteSpace=wrap;rounded=0;" vertex="1" parent="WIyWlLk6GJQsqaUBKTNV-1">
          <mxGeometry x="200" y="395" width="60" height="30" as="geometry" />
        </mxCell>
        <mxCell id="QGUBepIBmEVTyhBLuL4_-58" value="USER" style="text;html=1;strokeColor=none;fillColor=none;align=center;verticalAlign=middle;whiteSpace=wrap;rounded=0;" vertex="1" parent="WIyWlLk6GJQsqaUBKTNV-1">
          <mxGeometry x="470" y="470" width="60" height="30" as="geometry" />
        </mxCell>
        <mxCell id="QGUBepIBmEVTyhBLuL4_-60" style="edgeStyle=orthogonalEdgeStyle;rounded=0;orthogonalLoop=1;jettySize=auto;html=1;exitX=0.5;exitY=0;exitDx=0;exitDy=0;entryX=0.4;entryY=0.983;entryDx=0;entryDy=0;entryPerimeter=0;" edge="1" parent="WIyWlLk6GJQsqaUBKTNV-1" source="QGUBepIBmEVTyhBLuL4_-58" target="QGUBepIBmEVTyhBLuL4_-22">
          <mxGeometry relative="1" as="geometry" />
        </mxCell>
        <mxCell id="QGUBepIBmEVTyhBLuL4_-63" value="" style="edgeStyle=orthogonalEdgeStyle;rounded=0;orthogonalLoop=1;jettySize=auto;html=1;" edge="1" parent="WIyWlLk6GJQsqaUBKTNV-1" source="QGUBepIBmEVTyhBLuL4_-61" target="QGUBepIBmEVTyhBLuL4_-62">
          <mxGeometry relative="1" as="geometry" />
        </mxCell>
        <mxCell id="QGUBepIBmEVTyhBLuL4_-61" value="" style="ellipse;whiteSpace=wrap;html=1;aspect=fixed;" vertex="1" parent="WIyWlLk6GJQsqaUBKTNV-1">
          <mxGeometry x="30" y="600" width="60" height="60" as="geometry" />
        </mxCell>
        <mxCell id="QGUBepIBmEVTyhBLuL4_-67" value="" style="edgeStyle=orthogonalEdgeStyle;rounded=0;orthogonalLoop=1;jettySize=auto;html=1;" edge="1" parent="WIyWlLk6GJQsqaUBKTNV-1" source="QGUBepIBmEVTyhBLuL4_-62" target="QGUBepIBmEVTyhBLuL4_-64">
          <mxGeometry relative="1" as="geometry" />
        </mxCell>
        <mxCell id="QGUBepIBmEVTyhBLuL4_-62" value="ПРОСМОРТ ПЕРЕЧНЯ ТЕСТА" style="rounded=1;whiteSpace=wrap;html=1;" vertex="1" parent="WIyWlLk6GJQsqaUBKTNV-1">
          <mxGeometry x="185" y="600" width="120" height="60" as="geometry" />
        </mxCell>
        <mxCell id="QGUBepIBmEVTyhBLuL4_-66" value="" style="edgeStyle=orthogonalEdgeStyle;rounded=0;orthogonalLoop=1;jettySize=auto;html=1;" edge="1" parent="WIyWlLk6GJQsqaUBKTNV-1" source="QGUBepIBmEVTyhBLuL4_-64" target="QGUBepIBmEVTyhBLuL4_-65">
          <mxGeometry relative="1" as="geometry" />
        </mxCell>
        <mxCell id="QGUBepIBmEVTyhBLuL4_-64" value="ПОЛУЧИТЬ СЕРТИФИКАТ" style="rounded=1;whiteSpace=wrap;html=1;" vertex="1" parent="WIyWlLk6GJQsqaUBKTNV-1">
          <mxGeometry x="354" y="600" width="120" height="60" as="geometry" />
        </mxCell>
        <mxCell id="QGUBepIBmEVTyhBLuL4_-65" value="" style="ellipse;whiteSpace=wrap;html=1;aspect=fixed;" vertex="1" parent="WIyWlLk6GJQsqaUBKTNV-1">
          <mxGeometry x="540" y="600" width="60" height="60" as="geometry" />
        </mxCell>
        <mxCell id="QGUBepIBmEVTyhBLuL4_-68" value="ВХОД НА СТРАНИЦУ СТАТИСТИКИ" style="text;html=1;strokeColor=none;fillColor=none;align=center;verticalAlign=middle;whiteSpace=wrap;rounded=0;" vertex="1" parent="WIyWlLk6GJQsqaUBKTNV-1">
          <mxGeometry x="25" y="680" width="60" height="30" as="geometry" />
        </mxCell>
        <mxCell id="QGUBepIBmEVTyhBLuL4_-74" value="" style="edgeStyle=orthogonalEdgeStyle;rounded=0;orthogonalLoop=1;jettySize=auto;html=1;" edge="1" parent="WIyWlLk6GJQsqaUBKTNV-1" target="QGUBepIBmEVTyhBLuL4_-64">
          <mxGeometry relative="1" as="geometry">
            <mxPoint x="414" y="570" as="sourcePoint" />
          </mxGeometry>
        </mxCell>
        <mxCell id="QGUBepIBmEVTyhBLuL4_-69" value="ФОРМА" style="text;html=1;strokeColor=none;fillColor=none;align=center;verticalAlign=middle;whiteSpace=wrap;rounded=0;" vertex="1" parent="WIyWlLk6GJQsqaUBKTNV-1">
          <mxGeometry x="384" y="540" width="60" height="30" as="geometry" />
        </mxCell>
        <mxCell id="QGUBepIBmEVTyhBLuL4_-72" value="" style="edgeStyle=orthogonalEdgeStyle;rounded=0;orthogonalLoop=1;jettySize=auto;html=1;" edge="1" parent="WIyWlLk6GJQsqaUBKTNV-1" source="QGUBepIBmEVTyhBLuL4_-71" target="QGUBepIBmEVTyhBLuL4_-62">
          <mxGeometry relative="1" as="geometry" />
        </mxCell>
        <mxCell id="QGUBepIBmEVTyhBLuL4_-71" value="USER" style="text;html=1;strokeColor=none;fillColor=none;align=center;verticalAlign=middle;whiteSpace=wrap;rounded=0;" vertex="1" parent="WIyWlLk6GJQsqaUBKTNV-1">
          <mxGeometry x="215" y="690" width="60" height="30" as="geometry" />
        </mxCell>
        <mxCell id="QGUBepIBmEVTyhBLuL4_-75" value="&lt;h1&gt;БП1.1 РЕГИСТРАЦИЯ ПОЛЬЗОВАТЕЛЯ&lt;/h1&gt;" style="text;html=1;strokeColor=none;fillColor=none;spacing=5;spacingTop=-20;whiteSpace=wrap;overflow=hidden;rounded=0;" vertex="1" parent="WIyWlLk6GJQsqaUBKTNV-1">
          <mxGeometry x="25" y="-160" width="190" height="120" as="geometry" />
        </mxCell>
        <mxCell id="QGUBepIBmEVTyhBLuL4_-76" value="&lt;h1&gt;БП1.2 ТЕСТИРОВАНИЕ&lt;/h1&gt;" style="text;html=1;strokeColor=none;fillColor=none;spacing=5;spacingTop=-20;whiteSpace=wrap;overflow=hidden;rounded=0;" vertex="1" parent="WIyWlLk6GJQsqaUBKTNV-1">
          <mxGeometry x="30" y="150" width="225" height="110" as="geometry" />
        </mxCell>
        <mxCell id="QGUBepIBmEVTyhBLuL4_-78" value="&lt;h1&gt;БП1.3 ПРОСМОТР СТАТИСТИКИ И ЗАПРОС НА ПОЛУЧЕНИЕ СЕРТИФИКАТА&lt;/h1&gt;" style="text;html=1;strokeColor=none;fillColor=none;spacing=5;spacingTop=-20;whiteSpace=wrap;overflow=hidden;rounded=0;" vertex="1" parent="WIyWlLk6GJQsqaUBKTNV-1">
          <mxGeometry x="35" y="480" width="400" height="90" as="geometry" />
        </mxCell>
        <mxCell id="QGUBepIBmEVTyhBLuL4_-85" style="edgeStyle=orthogonalEdgeStyle;rounded=0;orthogonalLoop=1;jettySize=auto;html=1;" edge="1" parent="WIyWlLk6GJQsqaUBKTNV-1" source="QGUBepIBmEVTyhBLuL4_-82" target="QGUBepIBmEVTyhBLuL4_-62">
          <mxGeometry relative="1" as="geometry" />
        </mxCell>
        <mxCell id="QGUBepIBmEVTyhBLuL4_-82" value="READER" style="text;html=1;strokeColor=none;fillColor=none;align=center;verticalAlign=middle;whiteSpace=wrap;rounded=0;" vertex="1" parent="WIyWlLk6GJQsqaUBKTNV-1">
          <mxGeometry x="215" y="555" width="60" height="30" as="geometry" />
        </mxCell>
        <mxCell id="QGUBepIBmEVTyhBLuL4_-84" value="" style="edgeStyle=orthogonalEdgeStyle;rounded=0;orthogonalLoop=1;jettySize=auto;html=1;" edge="1" parent="WIyWlLk6GJQsqaUBKTNV-1" source="QGUBepIBmEVTyhBLuL4_-83" target="QGUBepIBmEVTyhBLuL4_-31">
          <mxGeometry relative="1" as="geometry" />
        </mxCell>
        <mxCell id="QGUBepIBmEVTyhBLuL4_-83" value="АЛГОРИТМ" style="text;html=1;strokeColor=none;fillColor=none;align=center;verticalAlign=middle;whiteSpace=wrap;rounded=0;" vertex="1" parent="WIyWlLk6GJQsqaUBKTNV-1">
          <mxGeometry x="650" y="320" width="60" height="30" as="geometry" />
        </mxCell>
        <mxCell id="QGUBepIBmEVTyhBLuL4_-87" value="" style="edgeStyle=orthogonalEdgeStyle;rounded=0;orthogonalLoop=1;jettySize=auto;html=1;" edge="1" parent="WIyWlLk6GJQsqaUBKTNV-1" source="QGUBepIBmEVTyhBLuL4_-86" target="QGUBepIBmEVTyhBLuL4_-64">
          <mxGeometry relative="1" as="geometry" />
        </mxCell>
        <mxCell id="QGUBepIBmEVTyhBLuL4_-86" value="ПО" style="text;html=1;strokeColor=none;fillColor=none;align=center;verticalAlign=middle;whiteSpace=wrap;rounded=0;" vertex="1" parent="WIyWlLk6GJQsqaUBKTNV-1">
          <mxGeometry x="384" y="680" width="60" height="30" as="geometry" />
        </mxCell>
      </root>
    </mxGraphModel>
  </diagram>
</mxfile>
